<svg xmlns="http://www.w3.org/2000/svg" width="768" height="512" viewBox="0 0 768 512">
<defs><filter id="grain"><feTurbulence type="fractalNoise" baseFrequency=".75" numOctaves="2" seed="21"/><feColorMatrix type="saturate" values="0"/><feComponentTransfer><feFuncA type="table" tableValues="0 .035"/></feComponentTransfer></filter></defs>
<rect width="768" height="512" fill="#F4EBDD"/><ellipse cx="384" cy="270" rx="325" ry="205" fill="#E7D7B8" opacity=".42"/>
<path d="M55 438Q180 380 308 425T535 414T713 438V512H55Z" fill="#A8B89B" opacity=".45"/>
<path d="M0 476Q145 430 285 467T560 458T768 473V512H0Z" fill="#244C3A" opacity=".92"/>
<circle cx="159.0" cy="165" r="18.0" fill="#5F8FA8" stroke="none" stroke-width="0" opacity="1"/><circle cx="180" cy="153.0" r="24.75" fill="#5F8FA8" stroke="none" stroke-width="0" opacity="1"/><circle cx="204.75" cy="165" r="19.5" fill="#5F8FA8" stroke="none" stroke-width="0" opacity="1"/><rect x="143.25" y="165" width="75.75" height="18.75" rx="12" fill="#5F8FA8" stroke="none" stroke-width="0" opacity="1"/><line x1="140" y1="205" x2="125" y2="250" stroke="#5F8FA8" stroke-width="6" stroke-linecap="round"/><line x1="162" y1="205" x2="147" y2="250" stroke="#5F8FA8" stroke-width="6" stroke-linecap="round"/><line x1="184" y1="205" x2="169" y2="250" stroke="#5F8FA8" stroke-width="6" stroke-linecap="round"/><line x1="206" y1="205" x2="191" y2="250" stroke="#5F8FA8" stroke-width="6" stroke-linecap="round"/><line x1="228" y1="205" x2="213" y2="250" stroke="#5F8FA8" stroke-width="6" stroke-linecap="round"/><path d="M330 270.2C289.2 241.3 324.9 217.5 319.8 179.25C358.9 204.75 370.8 230.25 330 270.2Z" fill="#C56F4A" stroke="#26312D" stroke-width="3" opacity="1" stroke-linecap="round" stroke-linejoin="round"/><path d="M330 254.9C314.7 236.2 333.4 222.6 332.55 204.75C351.25 220.9 350.4 240.45 330 254.9Z" fill="#D9A441" stroke="none" stroke-width="0" opacity="1" stroke-linecap="round" stroke-linejoin="round"/><path d="M428.5 226.5C472.5 204.5 467.0 262.25 500 254.0C536.3 244.1 519.8 311.75 572.6 302.4" fill="none" stroke="#5F8FA8" stroke-width="38" opacity="1" stroke-linecap="round" stroke-linejoin="round"/><path d="M625 237.4C589.0 221.4 599.4 186.2 625 181.4C650.6 186.2 661.0 221.4 625 237.4Z" fill="#A8B89B" stroke="#26312D" stroke-width="3" opacity="1" stroke-linecap="round" stroke-linejoin="round"/><path d="M625 232.6V193.4" fill="none" stroke="#26312D" stroke-width="2" opacity="1" stroke-linecap="round" stroke-linejoin="round"/><g transform="translate(327 363) rotate(-24)"><rect x="-9.1" y="-23.099999999999998" width="18.2" height="46.199999999999996" rx="13" fill="#C56F4A" stroke="#26312D" stroke-width="2" opacity="1"/><circle cx="0" cy="-23.799999999999997" r="9.1" fill="#C56F4A" stroke="#26312D" stroke-width="2" opacity="1"/></g><g transform="translate(437 363) rotate(24)"><rect x="-9.1" y="-23.099999999999998" width="18.2" height="46.199999999999996" rx="13" fill="#D9A441" stroke="#26312D" stroke-width="2" opacity="1"/><circle cx="0" cy="-23.799999999999997" r="9.1" fill="#D9A441" stroke="#26312D" stroke-width="2" opacity="1"/></g><g transform="translate(350 409) rotate(-8)"><rect x="-9.1" y="-23.099999999999998" width="18.2" height="46.199999999999996" rx="13" fill="#5F8FA8" stroke="#26312D" stroke-width="2" opacity="1"/><circle cx="0" cy="-23.799999999999997" r="9.1" fill="#5F8FA8" stroke="#26312D" stroke-width="2" opacity="1"/></g><g transform="translate(414 409) rotate(8)"><rect x="-9.1" y="-23.099999999999998" width="18.2" height="46.199999999999996" rx="13" fill="#5F8F65" stroke="#26312D" stroke-width="2" opacity="1"/><circle cx="0" cy="-23.799999999999997" r="9.1" fill="#5F8F65" stroke="#26312D" stroke-width="2" opacity="1"/></g><rect width="768" height="512" fill="#26312D" opacity=".022" filter="url(#grain)"/></svg>