<svg xmlns="http://www.w3.org/2000/svg" width="768" height="512" viewBox="0 0 768 512">
<defs><filter id="grain"><feTurbulence type="fractalNoise" baseFrequency=".75" numOctaves="2" seed="21"/><feColorMatrix type="saturate" values="0"/><feComponentTransfer><feFuncA type="table" tableValues="0 .035"/></feComponentTransfer></filter></defs>
<rect width="768" height="512" fill="#F4EBDD"/><ellipse cx="384" cy="270" rx="325" ry="205" fill="#E7D7B8" opacity=".42"/>
<path d="M55 438Q180 380 308 425T535 414T713 438V512H55Z" fill="#A8B89B" opacity=".45"/>
<path d="M0 476Q145 430 285 467T560 458T768 473V512H0Z" fill="#244C3A" opacity=".92"/>
<circle cx="165" cy="275" r="70" fill="#5F8F65" stroke="#26312D" stroke-width="3" opacity="1"/><path d="M125 304Q165 235 205 304" fill="#E7D7B8" stroke="#26312D" stroke-width="3" opacity="1" stroke-linecap="round" stroke-linejoin="round"/><circle cx="165" cy="258" r="18" fill="#C56F4A" stroke="none" stroke-width="0" opacity="1"/><circle cx="384" cy="270" r="75" fill="#F4EBDD" stroke="#26312D" stroke-width="3" opacity="1"/><circle cx="354" cy="250" r="18" fill="#C56F4A" stroke="#26312D" stroke-width="2" opacity="1"/><circle cx="417" cy="239" r="16" fill="#5F8FA8" stroke="#26312D" stroke-width="2" opacity="1"/><circle cx="404" cy="300" r="20" fill="#D9A441" stroke="#26312D" stroke-width="2" opacity="1"/><line x1="370" y1="252" x2="400" y2="242" stroke="#26312D" stroke-width="4" stroke-linecap="round"/><line x1="364" y1="265" x2="392" y2="292" stroke="#26312D" stroke-width="4" stroke-linecap="round"/><rect x="570.6" y="226.0" width="58.8" height="98.0" rx="6" fill="#E7D7B8" stroke="#26312D" stroke-width="3" opacity="1"/><line x1="583.2" y1="243.5" x2="616.8" y2="243.5" stroke="#26312D" stroke-width="2" stroke-linecap="round"/><line x1="583.2" y1="264.5" x2="616.8" y2="264.5" stroke="#26312D" stroke-width="2" stroke-linecap="round"/><line x1="583.2" y1="285.5" x2="616.8" y2="285.5" stroke="#26312D" stroke-width="2" stroke-linecap="round"/><line x1="583.2" y1="306.5" x2="616.8" y2="306.5" stroke="#26312D" stroke-width="2" stroke-linecap="round"/><path d="M545 205L600 160L655 205" fill="#A8B89B" stroke="#26312D" stroke-width="3" opacity="1" stroke-linecap="round" stroke-linejoin="round"/><rect width="768" height="512" fill="#26312D" opacity=".022" filter="url(#grain)"/></svg>