<svg xmlns="http://www.w3.org/2000/svg" width="768" height="512" viewBox="0 0 768 512">
<defs><filter id="grain"><feTurbulence type="fractalNoise" baseFrequency=".75" numOctaves="2" seed="21"/><feColorMatrix type="saturate" values="0"/><feComponentTransfer><feFuncA type="table" tableValues="0 .035"/></feComponentTransfer></filter></defs>
<rect width="768" height="512" fill="#F4EBDD"/><ellipse cx="384" cy="270" rx="325" ry="205" fill="#E7D7B8" opacity=".42"/>
<path d="M55 438Q180 380 308 425T535 414T713 438V512H55Z" fill="#A8B89B" opacity=".45"/>
<path d="M0 476Q145 430 285 467T560 458T768 473V512H0Z" fill="#244C3A" opacity=".92"/>
<rect x="95" y="135" width="578" height="245" rx="28" fill="#F4EBDD" stroke="#26312D" stroke-width="4" opacity="1"/><path d="M145 325L205 275L260 298L335 210L405 244L480 174L620 220" fill="none" stroke="#5F8F65" stroke-width="9" opacity="1" stroke-linecap="round" stroke-linejoin="round"/><rect x="145" y="320" width="38" height="42" rx="8" fill="#C56F4A" stroke="#26312D" stroke-width="2" opacity="1"/><rect x="220" y="278" width="38" height="84" rx="8" fill="#D9A441" stroke="#26312D" stroke-width="2" opacity="1"/><rect x="295" y="236" width="38" height="126" rx="8" fill="#5F8FA8" stroke="#26312D" stroke-width="2" opacity="1"/><rect x="370" y="320" width="38" height="42" rx="8" fill="#5F8F65" stroke="#26312D" stroke-width="2" opacity="1"/><rect x="445" y="278" width="38" height="84" rx="8" fill="#C56F4A" stroke="#26312D" stroke-width="2" opacity="1"/><rect x="520" y="236" width="38" height="126" rx="8" fill="#D9A441" stroke="#26312D" stroke-width="2" opacity="1"/><rect x="595" y="320" width="38" height="42" rx="8" fill="#5F8FA8" stroke="#26312D" stroke-width="2" opacity="1"/><circle cx="580" cy="245" r="48" fill="#E7D7B8" stroke="#26312D" stroke-width="3" opacity="1"/><path d="M580 245L580 198A47 47 0 0 1 620 270Z" fill="#C56F4A" stroke="none" stroke-width="0" opacity="1" stroke-linecap="round" stroke-linejoin="round"/><rect width="768" height="512" fill="#26312D" opacity=".022" filter="url(#grain)"/></svg>