<svg xmlns="http://www.w3.org/2000/svg" width="768" height="512" viewBox="0 0 768 512">
<defs><filter id="grain"><feTurbulence type="fractalNoise" baseFrequency=".75" numOctaves="2" seed="21"/><feColorMatrix type="saturate" values="0"/><feComponentTransfer><feFuncA type="table" tableValues="0 .035"/></feComponentTransfer></filter></defs>
<rect width="768" height="512" fill="#F4EBDD"/><ellipse cx="384" cy="270" rx="325" ry="205" fill="#E7D7B8" opacity=".42"/>
<path d="M55 438Q180 380 308 425T535 414T713 438V512H55Z" fill="#A8B89B" opacity=".45"/>
<path d="M0 476Q145 430 285 467T560 458T768 473V512H0Z" fill="#244C3A" opacity=".92"/>
<path d="M210 203L244 256H222C213 239 200 237 187 254" fill="none" stroke="#5F8F65" stroke-width="14" opacity="1" stroke-linecap="round" stroke-linejoin="round"/><path d="M267 293L205 296L218 275C238 279 246 271 237 252" fill="none" stroke="#C56F4A" stroke-width="14" opacity="1" stroke-linecap="round" stroke-linejoin="round"/><path d="M153 289L183 234L195 256C181 272 186 286 208 289" fill="none" stroke="#D9A441" stroke-width="14" opacity="1" stroke-linecap="round" stroke-linejoin="round"/><path d="M337.4 281.1H425.8L439.4 338.9H323.8Z" fill="#5F8FA8" stroke="#26312D" stroke-width="3" opacity="1" stroke-linecap="round" stroke-linejoin="round"/><line x1="355.25" y1="282.8" x2="345.9" y2="336.35" stroke="#26312D" stroke-width="2" stroke-linecap="round"/><line x1="385" y1="282.8" x2="385" y2="336.35" stroke="#26312D" stroke-width="2" stroke-linecap="round"/><line x1="413.9" y1="282.8" x2="424.1" y2="336.35" stroke="#26312D" stroke-width="2" stroke-linecap="round"/><line x1="332.3" y1="310" x2="432.6" y2="310" stroke="#26312D" stroke-width="2" stroke-linecap="round"/><circle cx="580" cy="260" r="68" fill="#5F8F65" stroke="#26312D" stroke-width="3" opacity="1"/><path d="M580 210C553 250 548 274 580 310C612 274 607 250 580 210Z" fill="#5F8FA8" stroke="#26312D" stroke-width="3" opacity="1" stroke-linecap="round" stroke-linejoin="round"/><g transform="translate(155 398) rotate(-24)"><rect x="-7.15" y="-18.150000000000002" width="14.3" height="36.300000000000004" rx="13" fill="#C56F4A" stroke="#26312D" stroke-width="2" opacity="1"/><circle cx="0" cy="-18.700000000000003" r="7.15" fill="#C56F4A" stroke="#26312D" stroke-width="2" opacity="1"/></g><g transform="translate(265 398) rotate(24)"><rect x="-7.15" y="-18.150000000000002" width="14.3" height="36.300000000000004" rx="13" fill="#D9A441" stroke="#26312D" stroke-width="2" opacity="1"/><circle cx="0" cy="-18.700000000000003" r="7.15" fill="#D9A441" stroke="#26312D" stroke-width="2" opacity="1"/></g><g transform="translate(178 444) rotate(-8)"><rect x="-7.15" y="-18.150000000000002" width="14.3" height="36.300000000000004" rx="13" fill="#5F8FA8" stroke="#26312D" stroke-width="2" opacity="1"/><circle cx="0" cy="-18.700000000000003" r="7.15" fill="#5F8FA8" stroke="#26312D" stroke-width="2" opacity="1"/></g><g transform="translate(242 444) rotate(8)"><rect x="-7.15" y="-18.150000000000002" width="14.3" height="36.300000000000004" rx="13" fill="#5F8F65" stroke="#26312D" stroke-width="2" opacity="1"/><circle cx="0" cy="-18.700000000000003" r="7.15" fill="#5F8F65" stroke="#26312D" stroke-width="2" opacity="1"/></g><rect width="768" height="512" fill="#26312D" opacity=".022" filter="url(#grain)"/></svg>