<svg xmlns="http://www.w3.org/2000/svg" width="768" height="512" viewBox="0 0 768 512">
<defs><filter id="grain"><feTurbulence type="fractalNoise" baseFrequency=".75" numOctaves="2" seed="21"/><feColorMatrix type="saturate" values="0"/><feComponentTransfer><feFuncA type="table" tableValues="0 .035"/></feComponentTransfer></filter></defs>
<rect width="768" height="512" fill="#F4EBDD"/><ellipse cx="384" cy="270" rx="325" ry="205" fill="#E7D7B8" opacity=".42"/>
<path d="M55 438Q180 380 308 425T535 414T713 438V512H55Z" fill="#A8B89B" opacity=".45"/>
<path d="M0 476Q145 430 285 467T560 458T768 473V512H0Z" fill="#244C3A" opacity=".92"/>
<rect x="110" y="185" width="548" height="155" rx="34" fill="#E7D7B8" stroke="#26312D" stroke-width="4" opacity="1"/><circle cx="165" cy="262" r="25" fill="#D9A441" stroke="#26312D" stroke-width="3" opacity="1"/><circle cx="165" cy="262" r="10.5" fill="#F4EBDD" stroke="#26312D" stroke-width="2" opacity="1"/><circle cx="235" cy="262" r="25" fill="#D9A441" stroke="#26312D" stroke-width="3" opacity="1"/><circle cx="235" cy="262" r="10.5" fill="#F4EBDD" stroke="#26312D" stroke-width="2" opacity="1"/><circle cx="305" cy="262" r="25" fill="#D9A441" stroke="#26312D" stroke-width="3" opacity="1"/><circle cx="305" cy="262" r="10.5" fill="#F4EBDD" stroke="#26312D" stroke-width="2" opacity="1"/><circle cx="375" cy="262" r="25" fill="#D9A441" stroke="#26312D" stroke-width="3" opacity="1"/><circle cx="375" cy="262" r="10.5" fill="#F4EBDD" stroke="#26312D" stroke-width="2" opacity="1"/><circle cx="445" cy="262" r="25" fill="#D9A441" stroke="#26312D" stroke-width="3" opacity="1"/><circle cx="445" cy="262" r="10.5" fill="#F4EBDD" stroke="#26312D" stroke-width="2" opacity="1"/><circle cx="515" cy="262" r="25" fill="#A8B89B" stroke="#26312D" stroke-width="3" opacity="1"/><circle cx="515" cy="262" r="10.5" fill="#F4EBDD" stroke="#26312D" stroke-width="2" opacity="1"/><circle cx="585" cy="262" r="25" fill="#A8B89B" stroke="#26312D" stroke-width="3" opacity="1"/><circle cx="585" cy="262" r="10.5" fill="#F4EBDD" stroke="#26312D" stroke-width="2" opacity="1"/><path d="M162 385C280 330 480 330 605 385" fill="none" stroke="#5F8FA8" stroke-width="8" opacity="1" stroke-linecap="round" stroke-linejoin="round"/><path d="M575 367L608 385L578 405" fill="#5F8FA8" stroke="#5F8FA8" stroke-width="2" opacity="1" stroke-linecap="round" stroke-linejoin="round"/><path d="M635 277.6C614.75 268.6 620.6 248.8 635 246.1C649.4 248.8 655.25 268.6 635 277.6Z" fill="#5F8F65" stroke="#26312D" stroke-width="3" opacity="1" stroke-linecap="round" stroke-linejoin="round"/><path d="M635 274.9V252.85" fill="none" stroke="#26312D" stroke-width="2" opacity="1" stroke-linecap="round" stroke-linejoin="round"/><rect width="768" height="512" fill="#26312D" opacity=".022" filter="url(#grain)"/></svg>